<svg xmlns="http://www.w3.org/2000/svg" width="54" height="54" viewBox="0 0 54 54">
    <g fill="none" fill-rule="evenodd">
        <path fill="#F2F2F2" fill-rule="nonzero" d="M-296-313H79V902h-375z"/>
        <path fill="#FFF" fill-rule="nonzero" d="M-296-5H80v88h-376z"/>
        <path d="M0 0h54v54H0z"/>
        <path stroke="#4A4A4A" stroke-linecap="round" stroke-linejoin="round" stroke-width="2" d="M33.363 17.019a2.808 2.808 0 0 1-.612-3.042 1.656 1.656 0 0 0-.279-1.8l-.36-.36a1.557 1.557 0 0 0-2.196 0L13.293 28.413a1.557 1.557 0 0 0 0 2.196l.36.369c.49.446 1.2.552 1.8.27a2.817 2.817 0 0 1 3.663 3.663c-.28.601-.17 1.312.279 1.8l5.472 5.481a1.557 1.557 0 0 0 2.196 0l16.641-16.605a1.539 1.539 0 0 0 0-2.196l-5.472-5.481a1.656 1.656 0 0 0-1.8-.279 2.808 2.808 0 0 1-3.069-.612z"/>
        <path fill="#6BC9F4" fill-rule="nonzero" d="M32.193 20.025a1.8 1.8 0 0 1-.387-1.971c.155-.44.035-.931-.306-1.251a1.215 1.215 0 0 0-1.692 0L18.306 28.332a1.197 1.197 0 0 0 0 1.692c.32.334.81.444 1.242.279a1.8 1.8 0 0 1 2.367 2.358c-.17.43-.063.92.27 1.242l3.294 3.294a1.197 1.197 0 0 0 1.683 0L38.7 25.668a1.197 1.197 0 0 0 0-1.692L35.406 20.7a1.152 1.152 0 0 0-1.206-.288 1.8 1.8 0 0 1-2.007-.387z"/>
        <path stroke="#4A4A4A" stroke-dasharray="2" stroke-linecap="round" stroke-linejoin="round" stroke-width="2" d="M18.513 31.869L29.502 20.88"/>
    </g>
</svg>
